<mxfile host="app.diagrams.net" agent="Mozilla/5.0 (Macintosh; Intel Mac OS X 10.15; rv:132.0) Gecko/20100101 Firefox/132.0" version="24.8.6">
  <diagram id="C5RBs43oDa-KdzZeNtuy" name="Page-1">
    <mxGraphModel dx="1703" dy="528" grid="1" gridSize="10" guides="1" tooltips="1" connect="1" arrows="1" fold="1" page="1" pageScale="1" pageWidth="827" pageHeight="1169" math="0" shadow="0">
      <root>
        <mxCell id="WIyWlLk6GJQsqaUBKTNV-0" />
        <mxCell id="WIyWlLk6GJQsqaUBKTNV-1" parent="WIyWlLk6GJQsqaUBKTNV-0" />
        <mxCell id="zkfFHV4jXpPFQw0GAbJ--6" value="CobDeResCivil" style="swimlane;fontStyle=0;align=center;verticalAlign=top;childLayout=stackLayout;horizontal=1;startSize=26;horizontalStack=0;resizeParent=1;resizeLast=0;collapsible=1;marginBottom=0;rounded=0;shadow=0;strokeWidth=1;" parent="WIyWlLk6GJQsqaUBKTNV-1" vertex="1">
          <mxGeometry x="-390" y="250" width="160" height="63" as="geometry">
            <mxRectangle x="130" y="380" width="160" height="26" as="alternateBounds" />
          </mxGeometry>
        </mxCell>
        <mxCell id="zkfFHV4jXpPFQw0GAbJ--7" value="CostoMensual : String" style="text;align=left;verticalAlign=top;spacingLeft=4;spacingRight=4;overflow=hidden;rotatable=0;points=[[0,0.5],[1,0.5]];portConstraint=eastwest;" parent="zkfFHV4jXpPFQw0GAbJ--6" vertex="1">
          <mxGeometry y="26" width="160" height="26" as="geometry" />
        </mxCell>
        <mxCell id="zkfFHV4jXpPFQw0GAbJ--9" value="" style="line;html=1;strokeWidth=1;align=left;verticalAlign=middle;spacingTop=-1;spacingLeft=3;spacingRight=3;rotatable=0;labelPosition=right;points=[];portConstraint=eastwest;" parent="zkfFHV4jXpPFQw0GAbJ--6" vertex="1">
          <mxGeometry y="52" width="160" height="8" as="geometry" />
        </mxCell>
        <mxCell id="zkfFHV4jXpPFQw0GAbJ--12" value="" style="endArrow=block;endSize=10;endFill=0;shadow=0;strokeWidth=1;rounded=0;curved=0;edgeStyle=elbowEdgeStyle;elbow=vertical;" parent="WIyWlLk6GJQsqaUBKTNV-1" source="zkfFHV4jXpPFQw0GAbJ--6" edge="1">
          <mxGeometry width="160" relative="1" as="geometry">
            <mxPoint x="-310" y="93" as="sourcePoint" />
            <mxPoint x="-230" y="113" as="targetPoint" />
          </mxGeometry>
        </mxCell>
        <mxCell id="zkfFHV4jXpPFQw0GAbJ--13" value="CobDeCasco" style="swimlane;fontStyle=0;align=center;verticalAlign=top;childLayout=stackLayout;horizontal=1;startSize=26;horizontalStack=0;resizeParent=1;resizeLast=0;collapsible=1;marginBottom=0;rounded=0;shadow=0;strokeWidth=1;" parent="WIyWlLk6GJQsqaUBKTNV-1" vertex="1">
          <mxGeometry x="-180" y="250" width="160" height="63" as="geometry">
            <mxRectangle x="340" y="380" width="170" height="26" as="alternateBounds" />
          </mxGeometry>
        </mxCell>
        <mxCell id="zkfFHV4jXpPFQw0GAbJ--14" value="Costo : String" style="text;align=left;verticalAlign=top;spacingLeft=4;spacingRight=4;overflow=hidden;rotatable=0;points=[[0,0.5],[1,0.5]];portConstraint=eastwest;" parent="zkfFHV4jXpPFQw0GAbJ--13" vertex="1">
          <mxGeometry y="26" width="160" height="26" as="geometry" />
        </mxCell>
        <mxCell id="zkfFHV4jXpPFQw0GAbJ--15" value="" style="line;html=1;strokeWidth=1;align=left;verticalAlign=middle;spacingTop=-1;spacingLeft=3;spacingRight=3;rotatable=0;labelPosition=right;points=[];portConstraint=eastwest;" parent="zkfFHV4jXpPFQw0GAbJ--13" vertex="1">
          <mxGeometry y="52" width="160" height="8" as="geometry" />
        </mxCell>
        <mxCell id="zkfFHV4jXpPFQw0GAbJ--16" value="" style="endArrow=block;endSize=10;endFill=0;shadow=0;strokeWidth=1;rounded=0;curved=0;edgeStyle=elbowEdgeStyle;elbow=vertical;entryX=0.5;entryY=1;entryDx=0;entryDy=0;" parent="WIyWlLk6GJQsqaUBKTNV-1" source="zkfFHV4jXpPFQw0GAbJ--13" target="6P_AhiE8qo_wAgspzTL7-38" edge="1">
          <mxGeometry width="160" relative="1" as="geometry">
            <mxPoint x="-300" y="263" as="sourcePoint" />
            <mxPoint x="-250" y="128" as="targetPoint" />
          </mxGeometry>
        </mxCell>
        <mxCell id="zkfFHV4jXpPFQw0GAbJ--26" value="" style="endArrow=none;shadow=0;strokeWidth=1;rounded=0;curved=0;endFill=0;edgeStyle=elbowEdgeStyle;elbow=vertical;exitX=0.5;exitY=0;exitDx=0;exitDy=0;entryX=1;entryY=0.5;entryDx=0;entryDy=0;" parent="WIyWlLk6GJQsqaUBKTNV-1" source="6P_AhiE8qo_wAgspzTL7-43" target="6P_AhiE8qo_wAgspzTL7-2" edge="1">
          <mxGeometry x="0.5" y="41" relative="1" as="geometry">
            <mxPoint x="340" y="179" as="sourcePoint" />
            <mxPoint x="440" y="85" as="targetPoint" />
            <mxPoint x="-40" y="32" as="offset" />
            <Array as="points">
              <mxPoint x="350" y="85" />
            </Array>
          </mxGeometry>
        </mxCell>
        <mxCell id="zkfFHV4jXpPFQw0GAbJ--27" value="0..1" style="resizable=0;align=left;verticalAlign=bottom;labelBackgroundColor=none;fontSize=18;" parent="zkfFHV4jXpPFQw0GAbJ--26" connectable="0" vertex="1">
          <mxGeometry x="-1" relative="1" as="geometry">
            <mxPoint y="-2" as="offset" />
          </mxGeometry>
        </mxCell>
        <mxCell id="zkfFHV4jXpPFQw0GAbJ--28" value="1" style="resizable=0;align=right;verticalAlign=bottom;labelBackgroundColor=none;fontSize=18;" parent="zkfFHV4jXpPFQw0GAbJ--26" connectable="0" vertex="1">
          <mxGeometry x="1" relative="1" as="geometry">
            <mxPoint x="20" y="5" as="offset" />
          </mxGeometry>
        </mxCell>
        <mxCell id="6P_AhiE8qo_wAgspzTL7-0" value="Persona" style="swimlane;fontStyle=0;align=center;verticalAlign=top;childLayout=stackLayout;horizontal=1;startSize=26;horizontalStack=0;resizeParent=1;resizeLast=0;collapsible=1;marginBottom=0;rounded=0;shadow=0;strokeWidth=1;" vertex="1" parent="WIyWlLk6GJQsqaUBKTNV-1">
          <mxGeometry x="160" y="10" width="160" height="176" as="geometry">
            <mxRectangle x="550" y="140" width="160" height="26" as="alternateBounds" />
          </mxGeometry>
        </mxCell>
        <mxCell id="6P_AhiE8qo_wAgspzTL7-1" value="Cuil : String" style="text;align=left;verticalAlign=top;spacingLeft=4;spacingRight=4;overflow=hidden;rotatable=0;points=[[0,0.5],[1,0.5]];portConstraint=eastwest;" vertex="1" parent="6P_AhiE8qo_wAgspzTL7-0">
          <mxGeometry y="26" width="160" height="26" as="geometry" />
        </mxCell>
        <mxCell id="6P_AhiE8qo_wAgspzTL7-2" value="Nombre : String" style="text;align=left;verticalAlign=top;spacingLeft=4;spacingRight=4;overflow=hidden;rotatable=0;points=[[0,0.5],[1,0.5]];portConstraint=eastwest;rounded=0;shadow=0;html=0;" vertex="1" parent="6P_AhiE8qo_wAgspzTL7-0">
          <mxGeometry y="52" width="160" height="26" as="geometry" />
        </mxCell>
        <mxCell id="6P_AhiE8qo_wAgspzTL7-3" value="Direccion : String" style="text;align=left;verticalAlign=top;spacingLeft=4;spacingRight=4;overflow=hidden;rotatable=0;points=[[0,0.5],[1,0.5]];portConstraint=eastwest;rounded=0;shadow=0;html=0;" vertex="1" parent="6P_AhiE8qo_wAgspzTL7-0">
          <mxGeometry y="78" width="160" height="26" as="geometry" />
        </mxCell>
        <mxCell id="6P_AhiE8qo_wAgspzTL7-4" value="Localidad : Stirng" style="text;align=left;verticalAlign=top;spacingLeft=4;spacingRight=4;overflow=hidden;rotatable=0;points=[[0,0.5],[1,0.5]];portConstraint=eastwest;rounded=0;shadow=0;html=0;" vertex="1" parent="6P_AhiE8qo_wAgspzTL7-0">
          <mxGeometry y="104" width="160" height="26" as="geometry" />
        </mxCell>
        <mxCell id="6P_AhiE8qo_wAgspzTL7-5" value="Mail : mail" style="text;align=left;verticalAlign=top;spacingLeft=4;spacingRight=4;overflow=hidden;rotatable=0;points=[[0,0.5],[1,0.5]];portConstraint=eastwest;rounded=0;shadow=0;html=0;" vertex="1" parent="6P_AhiE8qo_wAgspzTL7-0">
          <mxGeometry y="130" width="160" height="26" as="geometry" />
        </mxCell>
        <mxCell id="6P_AhiE8qo_wAgspzTL7-6" value="" style="line;html=1;strokeWidth=1;align=left;verticalAlign=middle;spacingTop=-1;spacingLeft=3;spacingRight=3;rotatable=0;labelPosition=right;points=[];portConstraint=eastwest;" vertex="1" parent="6P_AhiE8qo_wAgspzTL7-0">
          <mxGeometry y="156" width="160" height="8" as="geometry" />
        </mxCell>
        <mxCell id="6P_AhiE8qo_wAgspzTL7-9" value="Poliza" style="swimlane;fontStyle=0;align=center;verticalAlign=top;childLayout=stackLayout;horizontal=1;startSize=26;horizontalStack=0;resizeParent=1;resizeLast=0;collapsible=1;marginBottom=0;rounded=0;shadow=0;strokeWidth=1;" vertex="1" parent="WIyWlLk6GJQsqaUBKTNV-1">
          <mxGeometry x="150" y="430" width="160" height="140" as="geometry">
            <mxRectangle x="550" y="140" width="160" height="26" as="alternateBounds" />
          </mxGeometry>
        </mxCell>
        <mxCell id="6P_AhiE8qo_wAgspzTL7-10" value="Numero : int" style="text;align=left;verticalAlign=top;spacingLeft=4;spacingRight=4;overflow=hidden;rotatable=0;points=[[0,0.5],[1,0.5]];portConstraint=eastwest;" vertex="1" parent="6P_AhiE8qo_wAgspzTL7-9">
          <mxGeometry y="26" width="160" height="26" as="geometry" />
        </mxCell>
        <mxCell id="6P_AhiE8qo_wAgspzTL7-11" value="Premio : Int" style="text;align=left;verticalAlign=top;spacingLeft=4;spacingRight=4;overflow=hidden;rotatable=0;points=[[0,0.5],[1,0.5]];portConstraint=eastwest;rounded=0;shadow=0;html=0;" vertex="1" parent="6P_AhiE8qo_wAgspzTL7-9">
          <mxGeometry y="52" width="160" height="26" as="geometry" />
        </mxCell>
        <mxCell id="6P_AhiE8qo_wAgspzTL7-12" value="InicioVigencia : Date" style="text;align=left;verticalAlign=top;spacingLeft=4;spacingRight=4;overflow=hidden;rotatable=0;points=[[0,0.5],[1,0.5]];portConstraint=eastwest;rounded=0;shadow=0;html=0;" vertex="1" parent="6P_AhiE8qo_wAgspzTL7-9">
          <mxGeometry y="78" width="160" height="26" as="geometry" />
        </mxCell>
        <mxCell id="6P_AhiE8qo_wAgspzTL7-13" value="FinVigencia : Date" style="text;align=left;verticalAlign=top;spacingLeft=4;spacingRight=4;overflow=hidden;rotatable=0;points=[[0,0.5],[1,0.5]];portConstraint=eastwest;rounded=0;shadow=0;html=0;" vertex="1" parent="6P_AhiE8qo_wAgspzTL7-9">
          <mxGeometry y="104" width="160" height="26" as="geometry" />
        </mxCell>
        <mxCell id="6P_AhiE8qo_wAgspzTL7-15" value="" style="line;html=1;strokeWidth=1;align=left;verticalAlign=middle;spacingTop=-1;spacingLeft=3;spacingRight=3;rotatable=0;labelPosition=right;points=[];portConstraint=eastwest;" vertex="1" parent="6P_AhiE8qo_wAgspzTL7-9">
          <mxGeometry y="130" width="160" height="8" as="geometry" />
        </mxCell>
        <mxCell id="6P_AhiE8qo_wAgspzTL7-16" value="Vehiculo" style="swimlane;fontStyle=0;align=center;verticalAlign=top;childLayout=stackLayout;horizontal=1;startSize=26;horizontalStack=0;resizeParent=1;resizeLast=0;collapsible=1;marginBottom=0;rounded=0;shadow=0;strokeWidth=1;" vertex="1" parent="WIyWlLk6GJQsqaUBKTNV-1">
          <mxGeometry x="440" y="420" width="160" height="176" as="geometry">
            <mxRectangle x="550" y="140" width="160" height="26" as="alternateBounds" />
          </mxGeometry>
        </mxCell>
        <mxCell id="6P_AhiE8qo_wAgspzTL7-17" value="Patente : String" style="text;align=left;verticalAlign=top;spacingLeft=4;spacingRight=4;overflow=hidden;rotatable=0;points=[[0,0.5],[1,0.5]];portConstraint=eastwest;" vertex="1" parent="6P_AhiE8qo_wAgspzTL7-16">
          <mxGeometry y="26" width="160" height="26" as="geometry" />
        </mxCell>
        <mxCell id="6P_AhiE8qo_wAgspzTL7-18" value="AnioFabricacion : Int" style="text;align=left;verticalAlign=top;spacingLeft=4;spacingRight=4;overflow=hidden;rotatable=0;points=[[0,0.5],[1,0.5]];portConstraint=eastwest;rounded=0;shadow=0;html=0;" vertex="1" parent="6P_AhiE8qo_wAgspzTL7-16">
          <mxGeometry y="52" width="160" height="26" as="geometry" />
        </mxCell>
        <mxCell id="6P_AhiE8qo_wAgspzTL7-19" value="Descripcion : Stirng" style="text;align=left;verticalAlign=top;spacingLeft=4;spacingRight=4;overflow=hidden;rotatable=0;points=[[0,0.5],[1,0.5]];portConstraint=eastwest;rounded=0;shadow=0;html=0;" vertex="1" parent="6P_AhiE8qo_wAgspzTL7-16">
          <mxGeometry y="78" width="160" height="26" as="geometry" />
        </mxCell>
        <mxCell id="6P_AhiE8qo_wAgspzTL7-20" value="Marca : String" style="text;align=left;verticalAlign=top;spacingLeft=4;spacingRight=4;overflow=hidden;rotatable=0;points=[[0,0.5],[1,0.5]];portConstraint=eastwest;rounded=0;shadow=0;html=0;" vertex="1" parent="6P_AhiE8qo_wAgspzTL7-16">
          <mxGeometry y="104" width="160" height="26" as="geometry" />
        </mxCell>
        <mxCell id="6P_AhiE8qo_wAgspzTL7-21" value="Valor : String" style="text;align=left;verticalAlign=top;spacingLeft=4;spacingRight=4;overflow=hidden;rotatable=0;points=[[0,0.5],[1,0.5]];portConstraint=eastwest;rounded=0;shadow=0;html=0;" vertex="1" parent="6P_AhiE8qo_wAgspzTL7-16">
          <mxGeometry y="130" width="160" height="26" as="geometry" />
        </mxCell>
        <mxCell id="6P_AhiE8qo_wAgspzTL7-22" value="" style="line;html=1;strokeWidth=1;align=left;verticalAlign=middle;spacingTop=-1;spacingLeft=3;spacingRight=3;rotatable=0;labelPosition=right;points=[];portConstraint=eastwest;" vertex="1" parent="6P_AhiE8qo_wAgspzTL7-16">
          <mxGeometry y="156" width="160" height="8" as="geometry" />
        </mxCell>
        <mxCell id="6P_AhiE8qo_wAgspzTL7-23" value="LocalidadDeGuarda" style="swimlane;fontStyle=0;align=center;verticalAlign=top;childLayout=stackLayout;horizontal=1;startSize=26;horizontalStack=0;resizeParent=1;resizeLast=0;collapsible=1;marginBottom=0;rounded=0;shadow=0;strokeWidth=1;" vertex="1" parent="WIyWlLk6GJQsqaUBKTNV-1">
          <mxGeometry x="440" y="660" width="160" height="90" as="geometry">
            <mxRectangle x="550" y="140" width="160" height="26" as="alternateBounds" />
          </mxGeometry>
        </mxCell>
        <mxCell id="6P_AhiE8qo_wAgspzTL7-64" value="" style="resizable=0;align=left;verticalAlign=bottom;labelBackgroundColor=none;fontSize=18;" connectable="0" vertex="1" parent="6P_AhiE8qo_wAgspzTL7-23">
          <mxGeometry y="26" width="160" as="geometry">
            <mxPoint x="43" y="107" as="offset" />
          </mxGeometry>
        </mxCell>
        <mxCell id="6P_AhiE8qo_wAgspzTL7-24" value="Nombre : Stirng" style="text;align=left;verticalAlign=top;spacingLeft=4;spacingRight=4;overflow=hidden;rotatable=0;points=[[0,0.5],[1,0.5]];portConstraint=eastwest;" vertex="1" parent="6P_AhiE8qo_wAgspzTL7-23">
          <mxGeometry y="26" width="160" height="26" as="geometry" />
        </mxCell>
        <mxCell id="6P_AhiE8qo_wAgspzTL7-37" value="CodigoPostal : Int" style="text;align=left;verticalAlign=top;spacingLeft=4;spacingRight=4;overflow=hidden;rotatable=0;points=[[0,0.5],[1,0.5]];portConstraint=eastwest;rounded=0;shadow=0;html=0;" vertex="1" parent="6P_AhiE8qo_wAgspzTL7-23">
          <mxGeometry y="52" width="160" height="26" as="geometry" />
        </mxCell>
        <mxCell id="6P_AhiE8qo_wAgspzTL7-29" value="" style="line;html=1;strokeWidth=1;align=left;verticalAlign=middle;spacingTop=-1;spacingLeft=3;spacingRight=3;rotatable=0;labelPosition=right;points=[];portConstraint=eastwest;" vertex="1" parent="6P_AhiE8qo_wAgspzTL7-23">
          <mxGeometry y="78" width="160" height="8" as="geometry" />
        </mxCell>
        <mxCell id="6P_AhiE8qo_wAgspzTL7-30" value="ZonaDeRiesgo" style="swimlane;fontStyle=0;align=center;verticalAlign=top;childLayout=stackLayout;horizontal=1;startSize=26;horizontalStack=0;resizeParent=1;resizeLast=0;collapsible=1;marginBottom=0;rounded=0;shadow=0;strokeWidth=1;" vertex="1" parent="WIyWlLk6GJQsqaUBKTNV-1">
          <mxGeometry x="180" y="660" width="160" height="90" as="geometry">
            <mxRectangle x="550" y="140" width="160" height="26" as="alternateBounds" />
          </mxGeometry>
        </mxCell>
        <mxCell id="6P_AhiE8qo_wAgspzTL7-31" value="Indice : Int" style="text;align=left;verticalAlign=top;spacingLeft=4;spacingRight=4;overflow=hidden;rotatable=0;points=[[0,0.5],[1,0.5]];portConstraint=eastwest;" vertex="1" parent="6P_AhiE8qo_wAgspzTL7-30">
          <mxGeometry y="26" width="160" height="26" as="geometry" />
        </mxCell>
        <mxCell id="6P_AhiE8qo_wAgspzTL7-32" value="Nombre : String" style="text;align=left;verticalAlign=top;spacingLeft=4;spacingRight=4;overflow=hidden;rotatable=0;points=[[0,0.5],[1,0.5]];portConstraint=eastwest;rounded=0;shadow=0;html=0;" vertex="1" parent="6P_AhiE8qo_wAgspzTL7-30">
          <mxGeometry y="52" width="160" height="28" as="geometry" />
        </mxCell>
        <mxCell id="6P_AhiE8qo_wAgspzTL7-36" value="" style="line;html=1;strokeWidth=1;align=left;verticalAlign=middle;spacingTop=-1;spacingLeft=3;spacingRight=3;rotatable=0;labelPosition=right;points=[];portConstraint=eastwest;" vertex="1" parent="6P_AhiE8qo_wAgspzTL7-30">
          <mxGeometry y="80" width="160" height="8" as="geometry" />
        </mxCell>
        <mxCell id="6P_AhiE8qo_wAgspzTL7-38" value="Cobertura" style="swimlane;fontStyle=0;align=center;verticalAlign=top;childLayout=stackLayout;horizontal=1;startSize=26;horizontalStack=0;resizeParent=1;resizeLast=0;collapsible=1;marginBottom=0;rounded=0;shadow=0;strokeWidth=1;" vertex="1" parent="WIyWlLk6GJQsqaUBKTNV-1">
          <mxGeometry x="-310" y="23" width="160" height="90" as="geometry">
            <mxRectangle x="550" y="140" width="160" height="26" as="alternateBounds" />
          </mxGeometry>
        </mxCell>
        <mxCell id="6P_AhiE8qo_wAgspzTL7-40" value="Nombre : String" style="text;align=left;verticalAlign=top;spacingLeft=4;spacingRight=4;overflow=hidden;rotatable=0;points=[[0,0.5],[1,0.5]];portConstraint=eastwest;rounded=0;shadow=0;html=0;" vertex="1" parent="6P_AhiE8qo_wAgspzTL7-38">
          <mxGeometry y="26" width="160" height="28" as="geometry" />
        </mxCell>
        <mxCell id="6P_AhiE8qo_wAgspzTL7-41" value="Descripcion : String" style="text;align=left;verticalAlign=top;spacingLeft=4;spacingRight=4;overflow=hidden;rotatable=0;points=[[0,0.5],[1,0.5]];portConstraint=eastwest;rounded=0;shadow=0;html=0;" vertex="1" parent="6P_AhiE8qo_wAgspzTL7-38">
          <mxGeometry y="54" width="160" height="26" as="geometry" />
        </mxCell>
        <mxCell id="6P_AhiE8qo_wAgspzTL7-42" value="" style="line;html=1;strokeWidth=1;align=left;verticalAlign=middle;spacingTop=-1;spacingLeft=3;spacingRight=3;rotatable=0;labelPosition=right;points=[];portConstraint=eastwest;" vertex="1" parent="6P_AhiE8qo_wAgspzTL7-38">
          <mxGeometry y="80" width="160" height="8" as="geometry" />
        </mxCell>
        <mxCell id="6P_AhiE8qo_wAgspzTL7-46" value="Empleado" style="swimlane;fontStyle=0;align=center;verticalAlign=top;childLayout=stackLayout;horizontal=1;startSize=26;horizontalStack=0;resizeParent=1;resizeLast=0;collapsible=1;marginBottom=0;rounded=0;shadow=0;strokeWidth=1;" vertex="1" parent="WIyWlLk6GJQsqaUBKTNV-1">
          <mxGeometry x="30" y="250" width="160" height="63" as="geometry">
            <mxRectangle x="340" y="380" width="170" height="26" as="alternateBounds" />
          </mxGeometry>
        </mxCell>
        <mxCell id="6P_AhiE8qo_wAgspzTL7-47" value="legajo : Int" style="text;align=left;verticalAlign=top;spacingLeft=4;spacingRight=4;overflow=hidden;rotatable=0;points=[[0,0.5],[1,0.5]];portConstraint=eastwest;" vertex="1" parent="6P_AhiE8qo_wAgspzTL7-46">
          <mxGeometry y="26" width="160" height="26" as="geometry" />
        </mxCell>
        <mxCell id="6P_AhiE8qo_wAgspzTL7-48" value="" style="line;html=1;strokeWidth=1;align=left;verticalAlign=middle;spacingTop=-1;spacingLeft=3;spacingRight=3;rotatable=0;labelPosition=right;points=[];portConstraint=eastwest;" vertex="1" parent="6P_AhiE8qo_wAgspzTL7-46">
          <mxGeometry y="52" width="160" height="8" as="geometry" />
        </mxCell>
        <mxCell id="6P_AhiE8qo_wAgspzTL7-43" value="Asegurado" style="swimlane;fontStyle=0;align=center;verticalAlign=top;childLayout=stackLayout;horizontal=1;startSize=26;horizontalStack=0;resizeParent=1;resizeLast=0;collapsible=1;marginBottom=0;rounded=0;shadow=0;strokeWidth=1;" vertex="1" parent="WIyWlLk6GJQsqaUBKTNV-1">
          <mxGeometry x="290" y="250" width="160" height="63" as="geometry">
            <mxRectangle x="340" y="380" width="170" height="26" as="alternateBounds" />
          </mxGeometry>
        </mxCell>
        <mxCell id="6P_AhiE8qo_wAgspzTL7-45" value="" style="line;html=1;strokeWidth=1;align=left;verticalAlign=middle;spacingTop=-1;spacingLeft=3;spacingRight=3;rotatable=0;labelPosition=right;points=[];portConstraint=eastwest;" vertex="1" parent="6P_AhiE8qo_wAgspzTL7-43">
          <mxGeometry y="26" width="160" height="8" as="geometry" />
        </mxCell>
        <mxCell id="6P_AhiE8qo_wAgspzTL7-52" value="" style="endArrow=none;shadow=0;strokeWidth=1;rounded=0;curved=0;endFill=0;edgeStyle=elbowEdgeStyle;elbow=vertical;exitX=0.5;exitY=0;exitDx=0;exitDy=0;entryX=0;entryY=0.5;entryDx=0;entryDy=0;" edge="1" parent="WIyWlLk6GJQsqaUBKTNV-1" source="6P_AhiE8qo_wAgspzTL7-46" target="6P_AhiE8qo_wAgspzTL7-1">
          <mxGeometry x="0.5" y="41" relative="1" as="geometry">
            <mxPoint x="90" y="275" as="sourcePoint" />
            <mxPoint x="150" y="40" as="targetPoint" />
            <mxPoint x="-40" y="32" as="offset" />
            <Array as="points">
              <mxPoint x="140" y="80" />
            </Array>
          </mxGeometry>
        </mxCell>
        <mxCell id="6P_AhiE8qo_wAgspzTL7-53" value="0..1" style="resizable=0;align=left;verticalAlign=bottom;labelBackgroundColor=none;fontSize=18;" connectable="0" vertex="1" parent="6P_AhiE8qo_wAgspzTL7-52">
          <mxGeometry x="-1" relative="1" as="geometry">
            <mxPoint y="-2" as="offset" />
          </mxGeometry>
        </mxCell>
        <mxCell id="6P_AhiE8qo_wAgspzTL7-54" value="1" style="resizable=0;align=right;verticalAlign=bottom;labelBackgroundColor=none;fontSize=18;" connectable="0" vertex="1" parent="6P_AhiE8qo_wAgspzTL7-52">
          <mxGeometry x="1" relative="1" as="geometry">
            <mxPoint x="-20" y="21" as="offset" />
          </mxGeometry>
        </mxCell>
        <mxCell id="6P_AhiE8qo_wAgspzTL7-55" value="" style="endArrow=none;shadow=0;strokeWidth=1;rounded=0;curved=0;endFill=0;edgeStyle=elbowEdgeStyle;elbow=vertical;exitX=0;exitY=0.5;exitDx=0;exitDy=0;entryX=1;entryY=0.5;entryDx=0;entryDy=0;" edge="1" parent="WIyWlLk6GJQsqaUBKTNV-1" source="6P_AhiE8qo_wAgspzTL7-17" target="6P_AhiE8qo_wAgspzTL7-10">
          <mxGeometry x="0.5" y="41" relative="1" as="geometry">
            <mxPoint x="480" y="625" as="sourcePoint" />
            <mxPoint x="430" y="450" as="targetPoint" />
            <mxPoint x="-40" y="32" as="offset" />
            <Array as="points">
              <mxPoint x="460" y="460" />
            </Array>
          </mxGeometry>
        </mxCell>
        <mxCell id="6P_AhiE8qo_wAgspzTL7-56" value="0..1" style="resizable=0;align=left;verticalAlign=bottom;labelBackgroundColor=none;fontSize=18;" connectable="0" vertex="1" parent="6P_AhiE8qo_wAgspzTL7-55">
          <mxGeometry x="-1" relative="1" as="geometry">
            <mxPoint x="-40" y="-2" as="offset" />
          </mxGeometry>
        </mxCell>
        <mxCell id="6P_AhiE8qo_wAgspzTL7-58" value="0..*" style="resizable=0;align=left;verticalAlign=bottom;labelBackgroundColor=none;fontSize=18;" connectable="0" vertex="1" parent="WIyWlLk6GJQsqaUBKTNV-1">
          <mxGeometry x="330" y="456" as="geometry" />
        </mxCell>
        <mxCell id="6P_AhiE8qo_wAgspzTL7-61" value="1" style="resizable=0;align=left;verticalAlign=bottom;labelBackgroundColor=none;fontSize=18;" connectable="0" vertex="1" parent="WIyWlLk6GJQsqaUBKTNV-1">
          <mxGeometry x="500" y="620" as="geometry" />
        </mxCell>
        <mxCell id="6P_AhiE8qo_wAgspzTL7-66" value="" style="endArrow=none;shadow=0;strokeWidth=1;rounded=0;curved=0;endFill=0;edgeStyle=elbowEdgeStyle;elbow=vertical;exitX=0.25;exitY=0;exitDx=0;exitDy=0;entryX=0.5;entryY=1;entryDx=0;entryDy=0;" edge="1" parent="WIyWlLk6GJQsqaUBKTNV-1" source="6P_AhiE8qo_wAgspzTL7-9" target="6P_AhiE8qo_wAgspzTL7-46">
          <mxGeometry x="0.5" y="41" relative="1" as="geometry">
            <mxPoint x="150" y="531" as="sourcePoint" />
            <mxPoint x="200" y="330" as="targetPoint" />
            <mxPoint x="-40" y="32" as="offset" />
            <Array as="points">
              <mxPoint x="180" y="361" />
            </Array>
          </mxGeometry>
        </mxCell>
        <mxCell id="6P_AhiE8qo_wAgspzTL7-67" value="0..*" style="resizable=0;align=left;verticalAlign=bottom;labelBackgroundColor=none;fontSize=18;" connectable="0" vertex="1" parent="6P_AhiE8qo_wAgspzTL7-66">
          <mxGeometry x="-1" relative="1" as="geometry">
            <mxPoint x="-40" y="-2" as="offset" />
          </mxGeometry>
        </mxCell>
        <mxCell id="6P_AhiE8qo_wAgspzTL7-68" value="1" style="resizable=0;align=right;verticalAlign=bottom;labelBackgroundColor=none;fontSize=18;" connectable="0" vertex="1" parent="6P_AhiE8qo_wAgspzTL7-66">
          <mxGeometry x="1" relative="1" as="geometry">
            <mxPoint x="-10" y="21" as="offset" />
          </mxGeometry>
        </mxCell>
        <mxCell id="6P_AhiE8qo_wAgspzTL7-69" value="" style="endArrow=none;shadow=0;strokeWidth=1;rounded=0;curved=0;endFill=0;edgeStyle=elbowEdgeStyle;elbow=vertical;exitX=0.75;exitY=0;exitDx=0;exitDy=0;entryX=0.5;entryY=1;entryDx=0;entryDy=0;" edge="1" parent="WIyWlLk6GJQsqaUBKTNV-1" source="6P_AhiE8qo_wAgspzTL7-9" target="6P_AhiE8qo_wAgspzTL7-43">
          <mxGeometry x="0.5" y="41" relative="1" as="geometry">
            <mxPoint x="470" y="531" as="sourcePoint" />
            <mxPoint x="520" y="330" as="targetPoint" />
            <mxPoint x="-40" y="32" as="offset" />
            <Array as="points">
              <mxPoint x="400" y="370" />
            </Array>
          </mxGeometry>
        </mxCell>
        <mxCell id="6P_AhiE8qo_wAgspzTL7-70" value="0..*" style="resizable=0;align=left;verticalAlign=bottom;labelBackgroundColor=none;fontSize=18;" connectable="0" vertex="1" parent="6P_AhiE8qo_wAgspzTL7-69">
          <mxGeometry x="-1" relative="1" as="geometry">
            <mxPoint x="10" y="-2" as="offset" />
          </mxGeometry>
        </mxCell>
        <mxCell id="6P_AhiE8qo_wAgspzTL7-71" value="1" style="resizable=0;align=right;verticalAlign=bottom;labelBackgroundColor=none;fontSize=18;" connectable="0" vertex="1" parent="6P_AhiE8qo_wAgspzTL7-69">
          <mxGeometry x="1" relative="1" as="geometry">
            <mxPoint x="-10" y="21" as="offset" />
          </mxGeometry>
        </mxCell>
        <mxCell id="6P_AhiE8qo_wAgspzTL7-72" value="" style="endArrow=none;shadow=0;strokeWidth=1;rounded=0;curved=0;endFill=0;edgeStyle=elbowEdgeStyle;elbow=vertical;exitX=0.5;exitY=0;exitDx=0;exitDy=0;entryX=0.5;entryY=1;entryDx=0;entryDy=0;" edge="1" parent="WIyWlLk6GJQsqaUBKTNV-1" source="6P_AhiE8qo_wAgspzTL7-23" target="6P_AhiE8qo_wAgspzTL7-16">
          <mxGeometry x="0.5" y="41" relative="1" as="geometry">
            <mxPoint x="460" y="650" as="sourcePoint" />
            <mxPoint x="330" y="660" as="targetPoint" />
            <mxPoint x="-40" y="32" as="offset" />
            <Array as="points">
              <mxPoint x="480" y="651" />
            </Array>
          </mxGeometry>
        </mxCell>
        <mxCell id="6P_AhiE8qo_wAgspzTL7-73" value="1" style="resizable=0;align=left;verticalAlign=bottom;labelBackgroundColor=none;fontSize=18;" connectable="0" vertex="1" parent="6P_AhiE8qo_wAgspzTL7-72">
          <mxGeometry x="-1" relative="1" as="geometry">
            <mxPoint x="-20" as="offset" />
          </mxGeometry>
        </mxCell>
        <mxCell id="6P_AhiE8qo_wAgspzTL7-74" value="" style="endArrow=none;shadow=0;strokeWidth=1;rounded=0;curved=0;endFill=0;edgeStyle=elbowEdgeStyle;elbow=vertical;exitX=0;exitY=0.5;exitDx=0;exitDy=0;entryX=1;entryY=0.5;entryDx=0;entryDy=0;" edge="1" parent="WIyWlLk6GJQsqaUBKTNV-1" source="6P_AhiE8qo_wAgspzTL7-24" target="6P_AhiE8qo_wAgspzTL7-31">
          <mxGeometry x="0.5" y="41" relative="1" as="geometry">
            <mxPoint x="390" y="737" as="sourcePoint" />
            <mxPoint x="390" y="673" as="targetPoint" />
            <mxPoint x="-40" y="32" as="offset" />
            <Array as="points" />
          </mxGeometry>
        </mxCell>
        <mxCell id="6P_AhiE8qo_wAgspzTL7-75" value="1" style="resizable=0;align=left;verticalAlign=bottom;labelBackgroundColor=none;fontSize=18;" connectable="0" vertex="1" parent="6P_AhiE8qo_wAgspzTL7-74">
          <mxGeometry x="-1" relative="1" as="geometry">
            <mxPoint x="-90" as="offset" />
          </mxGeometry>
        </mxCell>
        <mxCell id="6P_AhiE8qo_wAgspzTL7-76" value="0..*" style="resizable=0;align=left;verticalAlign=bottom;labelBackgroundColor=none;fontSize=18;" connectable="0" vertex="1" parent="WIyWlLk6GJQsqaUBKTNV-1">
          <mxGeometry x="410" y="700" as="geometry" />
        </mxCell>
        <mxCell id="6P_AhiE8qo_wAgspzTL7-77" value="" style="endArrow=none;shadow=0;strokeWidth=1;rounded=0;curved=0;endFill=0;edgeStyle=elbowEdgeStyle;elbow=vertical;exitX=0;exitY=0.5;exitDx=0;exitDy=0;entryX=0.5;entryY=1;entryDx=0;entryDy=0;" edge="1" parent="WIyWlLk6GJQsqaUBKTNV-1" source="6P_AhiE8qo_wAgspzTL7-12" target="zkfFHV4jXpPFQw0GAbJ--6">
          <mxGeometry x="0.5" y="41" relative="1" as="geometry">
            <mxPoint x="-230" y="437" as="sourcePoint" />
            <mxPoint x="-310" y="350" as="targetPoint" />
            <mxPoint x="-40" y="32" as="offset" />
            <Array as="points">
              <mxPoint x="-70" y="521" />
            </Array>
          </mxGeometry>
        </mxCell>
        <mxCell id="6P_AhiE8qo_wAgspzTL7-78" value="1" style="resizable=0;align=left;verticalAlign=bottom;labelBackgroundColor=none;fontSize=18;" connectable="0" vertex="1" parent="6P_AhiE8qo_wAgspzTL7-77">
          <mxGeometry x="-1" relative="1" as="geometry">
            <mxPoint x="-20" y="-2" as="offset" />
          </mxGeometry>
        </mxCell>
        <mxCell id="6P_AhiE8qo_wAgspzTL7-79" value="1" style="resizable=0;align=right;verticalAlign=bottom;labelBackgroundColor=none;fontSize=18;" connectable="0" vertex="1" parent="6P_AhiE8qo_wAgspzTL7-77">
          <mxGeometry x="1" relative="1" as="geometry">
            <mxPoint x="-10" y="21" as="offset" />
          </mxGeometry>
        </mxCell>
        <mxCell id="6P_AhiE8qo_wAgspzTL7-80" value="" style="endArrow=none;shadow=0;strokeWidth=1;rounded=0;curved=0;endFill=0;edgeStyle=elbowEdgeStyle;elbow=vertical;exitX=0.5;exitY=1;exitDx=0;exitDy=0;entryX=0;entryY=0.5;entryDx=0;entryDy=0;" edge="1" parent="WIyWlLk6GJQsqaUBKTNV-1" source="zkfFHV4jXpPFQw0GAbJ--13" target="6P_AhiE8qo_wAgspzTL7-10">
          <mxGeometry x="0.5" y="41" relative="1" as="geometry">
            <mxPoint y="531" as="sourcePoint" />
            <mxPoint x="50" y="330" as="targetPoint" />
            <mxPoint x="-40" y="32" as="offset" />
            <Array as="points">
              <mxPoint x="30" y="469" />
            </Array>
          </mxGeometry>
        </mxCell>
        <mxCell id="6P_AhiE8qo_wAgspzTL7-81" value="0..1" style="resizable=0;align=left;verticalAlign=bottom;labelBackgroundColor=none;fontSize=18;" connectable="0" vertex="1" parent="6P_AhiE8qo_wAgspzTL7-80">
          <mxGeometry x="-1" relative="1" as="geometry">
            <mxPoint y="27" as="offset" />
          </mxGeometry>
        </mxCell>
        <mxCell id="6P_AhiE8qo_wAgspzTL7-82" value="1" style="resizable=0;align=right;verticalAlign=bottom;labelBackgroundColor=none;fontSize=18;" connectable="0" vertex="1" parent="6P_AhiE8qo_wAgspzTL7-80">
          <mxGeometry x="1" relative="1" as="geometry">
            <mxPoint x="-10" y="1" as="offset" />
          </mxGeometry>
        </mxCell>
      </root>
    </mxGraphModel>
  </diagram>
</mxfile>
